<svg width="406" height="237" viewBox="0 0 406 237" fill="none" xmlns="http://www.w3.org/2000/svg">
<g clip-path="url(#clip0_2_9)">
<path d="M64.7106 22.1022C64.1563 22.6348 63.7406 25.0315 63.7406 27.5612C63.7406 32.8871 62.6321 33.0202 53.2096 28.7596C49.3297 27.0287 44.2027 25.1646 41.7085 24.632C38.1058 23.9663 37.413 24.0994 37.413 26.2298C37.413 27.9607 41.0157 30.3573 50.0225 34.618C56.8123 37.8135 63.1863 41.2753 63.8792 42.2073C64.7106 43.1393 66.9276 62.3124 68.729 84.814C70.5304 107.449 72.6089 131.681 73.4403 138.871C75.5188 157.911 75.3802 158.444 71.5003 158.444C66.9276 158.444 59.9993 152.585 58.8908 147.792C57.7822 142.866 55.4266 143.931 55.4266 149.257C55.4266 151.92 56.8123 154.583 59.3065 157.112C77.3201 174.421 129.837 154.183 146.326 123.693C149.79 117.302 150.206 115.038 150.345 103.854C150.345 91.6045 150.206 90.9388 145.356 83.882C136.488 70.8337 125.68 63.1112 94.2253 47.5331C83.9713 42.3405 74.4102 37.2809 73.1631 36.2157C71.7775 35.1506 70.6689 31.9551 70.3918 28.0938C70.1147 23.8331 69.2833 21.8359 67.8976 21.5697C66.6505 21.4365 65.2648 21.5697 64.7106 22.1022ZM93.9481 54.9893C116.534 65.7742 124.294 70.4343 131.915 78.1567C138.705 85.0803 142.308 91.4714 143.971 100.392C145.218 106.916 145.079 108.913 142.585 115.171C137.042 129.684 123.047 143.931 106.973 151.653C99.4908 155.248 84.5256 158.976 83.1399 157.512C82.5857 156.979 81.4771 148.591 80.5072 139.138C76.9044 99.8596 74.6874 77.2247 73.4403 64.5758C71.916 49.264 71.7775 45.2697 72.7474 45.2697C73.1631 45.2697 82.7242 49.6635 93.9481 54.9893Z" fill="#F70D1A"/>
<path d="M217.272 97.7292C216.164 100.126 216.164 106.916 217.134 122.095L218.519 143.132L212.561 148.724C203.831 157.112 196.626 156.047 194.686 146.061C193.855 142.2 197.18 111.976 198.982 106.117C199.536 104.387 198.843 103.854 195.795 103.854C186.511 103.854 180.968 106.65 171.13 116.37C159.352 127.953 152.562 139.937 151.453 151.387C150.622 160.574 152.7 163.77 159.49 163.77C164.756 163.77 176.534 153.384 184.294 141.934L189.836 133.812V145.262C189.836 157.645 191.638 161.107 198.012 161.107C202.307 161.107 211.591 156.047 214.085 152.186C217.134 147.792 218.658 148.325 219.767 154.05C221.014 160.574 224.478 169.096 225.863 169.096C229.743 169.096 237.78 154.982 242.353 140.469C245.401 130.883 247.48 126.755 248.45 127.82C248.866 128.22 250.944 132.081 253.3 136.475C257.457 144.597 263.415 151.787 265.909 151.787C268.265 151.787 272.56 144.73 275.609 136.208C278.519 127.953 282.122 102.922 280.736 101.457C280.32 101.058 278.657 101.857 277.133 103.188C275.193 104.786 274.362 107.316 274.362 111.044C274.362 118.766 271.868 134.478 270.066 138.738C266.879 146.194 262.999 142.866 253.577 124.358C246.51 110.511 245.54 110.245 243.184 121.163C240.69 132.88 232.653 153.118 229.466 155.648C227.803 156.979 227.111 156.713 225.586 154.183C224.201 151.92 223.785 143.798 223.785 122.894C223.785 96.6641 223.646 94.5337 221.291 94.5337C220.044 94.5337 218.242 95.9983 217.272 97.7292ZM190.529 116.103C188.035 130.217 169.19 155.781 161.291 155.781C158.243 155.781 157.966 155.248 157.966 150.056C157.966 146.993 159.213 141.934 160.599 138.871C166.834 125.823 182.076 110.511 188.728 110.511C191.222 110.511 191.36 111.177 190.529 116.103Z" fill="#F70D1A"/>
<path d="M291.267 131.149C291.405 160.574 291.544 163.77 293.623 163.77C295.285 163.77 297.364 159.775 301.105 148.724C308.865 126.356 316.07 114.106 319.396 117.435C319.95 117.967 321.752 123.693 323.553 130.217C329.096 151.52 335.054 159.509 342.537 156.18C345.585 154.716 345.585 154.716 342.952 153.784C333.253 150.588 331.313 146.993 327.71 127.154C322.999 100.392 312.883 101.59 301.244 130.483L297.225 140.469L296.81 121.296C296.532 103.454 295.562 98.5281 292.375 98.5281C291.683 98.5281 291.267 113.174 291.267 131.149Z" fill="#F70D1A"/>
<path d="M24.5739 222H12.4769V189.273H24.5579C27.8924 189.273 30.7635 189.928 33.1712 191.238C35.5895 192.538 37.4538 194.413 38.7642 196.863C40.0746 199.303 40.7298 202.222 40.7298 205.62C40.7298 209.029 40.0746 211.959 38.7642 214.409C37.4645 216.86 35.6055 218.74 33.1871 220.05C30.7688 221.35 27.8977 222 24.5739 222ZM20.3871 215.256H24.2702C26.1026 215.256 27.6527 214.947 28.9205 214.33C30.1989 213.701 31.163 212.684 31.8129 211.277C32.4734 209.86 32.8036 207.975 32.8036 205.62C32.8036 203.266 32.4734 201.391 31.8129 199.995C31.1523 198.589 30.1776 197.577 28.8885 196.959C27.6101 196.331 26.0334 196.016 24.1584 196.016H20.3871V215.256ZM45.348 222V189.273H58.8672C61.3175 189.273 63.4322 189.715 65.2113 190.599C67.0011 191.473 68.3807 192.73 69.3501 194.37C70.3196 196 70.8043 197.934 70.8043 200.171C70.8043 202.44 70.3089 204.369 69.3182 205.956C68.3274 207.533 66.9212 208.737 65.0994 209.567C63.2777 210.388 61.1204 210.798 58.6275 210.798H50.0781V204.566H57.1573C58.3505 204.566 59.3466 204.411 60.1456 204.102C60.9553 203.783 61.5678 203.303 61.9833 202.664C62.3988 202.014 62.6065 201.183 62.6065 200.171C62.6065 199.159 62.3988 198.323 61.9833 197.662C61.5678 196.991 60.9553 196.49 60.1456 196.16C59.3359 195.819 58.3398 195.649 57.1573 195.649H53.2582V222H45.348ZM63.7731 207.043L71.9229 222H63.2937L55.3036 207.043H63.7731ZM83.0531 189.273V222H75.1429V189.273H83.0531ZM95.4497 189.273L102.769 213.243H103.04L110.359 189.273H119.212L108.17 222H97.6389L86.5967 189.273H95.4497ZM130.646 189.273V222H122.736V189.273H130.646ZM163.465 189.273V222H156.753L143.73 203.112H143.522V222H135.612V189.273H142.419L155.299 208.129H155.571V189.273H163.465ZM189.916 199.963C189.735 199.292 189.469 198.701 189.117 198.19C188.766 197.668 188.334 197.225 187.823 196.863C187.311 196.501 186.725 196.229 186.065 196.048C185.404 195.857 184.68 195.761 183.892 195.761C182.304 195.761 180.93 196.144 179.769 196.911C178.618 197.678 177.729 198.797 177.1 200.267C176.472 201.727 176.157 203.5 176.157 205.588C176.157 207.687 176.461 209.477 177.068 210.958C177.675 212.439 178.554 213.568 179.705 214.346C180.855 215.123 182.251 215.512 183.892 215.512C185.34 215.512 186.566 215.278 187.567 214.809C188.579 214.33 189.346 213.653 189.868 212.779C190.39 211.906 190.651 210.878 190.651 209.695L192.121 209.871H184.163V204.102H198.274V208.433C198.274 211.363 197.65 213.871 196.404 215.96C195.168 218.048 193.464 219.651 191.29 220.77C189.128 221.888 186.64 222.447 183.828 222.447C180.706 222.447 177.963 221.771 175.598 220.418C173.233 219.065 171.39 217.137 170.069 214.633C168.748 212.119 168.087 209.136 168.087 205.684C168.087 203 168.487 200.619 169.286 198.541C170.085 196.453 171.198 194.685 172.626 193.236C174.064 191.787 175.726 190.69 177.611 189.944C179.508 189.198 181.548 188.825 183.732 188.825C185.628 188.825 187.391 189.097 189.021 189.64C190.662 190.184 192.111 190.951 193.368 191.941C194.636 192.932 195.664 194.109 196.452 195.473C197.24 196.837 197.73 198.333 197.922 199.963H189.916ZM211.533 195.697V189.273H239.195V195.697H229.271V222H221.473V195.697H211.533ZM262.857 189.273H270.752V210.382C270.752 212.822 270.171 214.947 269.01 216.759C267.848 218.559 266.229 219.955 264.152 220.945C262.074 221.925 259.661 222.415 256.913 222.415C254.132 222.415 251.703 221.925 249.626 220.945C247.548 219.955 245.934 218.559 244.784 216.759C243.633 214.947 243.058 212.822 243.058 210.382V189.273H250.968V209.695C250.968 210.825 251.213 211.831 251.703 212.716C252.204 213.6 252.902 214.292 253.797 214.793C254.691 215.294 255.73 215.544 256.913 215.544C258.095 215.544 259.129 215.294 260.013 214.793C260.908 214.292 261.606 213.6 262.106 212.716C262.607 211.831 262.857 210.825 262.857 209.695V189.273ZM283.619 189.273V222H275.709V189.273H283.619ZM287.515 195.697V189.273H315.176V195.697H305.253V222H297.454V195.697H287.515ZM326.95 189.273V222H319.039V189.273H326.95ZM362.805 205.636C362.805 209.237 362.112 212.289 360.728 214.793C359.343 217.297 357.468 219.198 355.103 220.498C352.748 221.798 350.106 222.447 347.176 222.447C344.236 222.447 341.589 221.792 339.234 220.482C336.88 219.172 335.01 217.27 333.625 214.777C332.251 212.273 331.564 209.227 331.564 205.636C331.564 202.036 332.251 198.983 333.625 196.48C335.01 193.976 336.88 192.075 339.234 190.775C341.589 189.475 344.236 188.825 347.176 188.825C350.106 188.825 352.748 189.475 355.103 190.775C357.468 192.075 359.343 193.976 360.728 196.48C362.112 198.983 362.805 202.036 362.805 205.636ZM354.719 205.636C354.719 203.506 354.415 201.705 353.808 200.235C353.212 198.765 352.349 197.652 351.219 196.895C350.101 196.139 348.753 195.761 347.176 195.761C345.61 195.761 344.263 196.139 343.133 196.895C342.004 197.652 341.136 198.765 340.529 200.235C339.932 201.705 339.634 203.506 339.634 205.636C339.634 207.767 339.932 209.567 340.529 211.038C341.136 212.508 342.004 213.621 343.133 214.377C344.263 215.134 345.61 215.512 347.176 215.512C348.753 215.512 350.101 215.134 351.219 214.377C352.349 213.621 353.212 212.508 353.808 211.038C354.415 209.567 354.719 207.767 354.719 205.636ZM395.277 189.273V222H388.565L375.541 203.112H375.333V222H367.423V189.273H374.231L387.111 208.129H387.382V189.273H395.277Z" fill="white"/>
</g>
<defs>
<clipPath id="clip0_2_9">
<rect width="406" height="237" fill="white"/>
</clipPath>
</defs>
</svg>
