<svg width="406" height="237" viewBox="0 0 406 237" fill="none" xmlns="http://www.w3.org/2000/svg">
<path d="M64.7106 22.1022C64.1563 22.6348 63.7406 25.0315 63.7406 27.5612C63.7406 32.8871 62.6321 33.0202 53.2096 28.7596C49.3297 27.0287 44.2027 25.1646 41.7085 24.632C38.1058 23.9663 37.413 24.0994 37.413 26.2298C37.413 27.9607 41.0157 30.3573 50.0225 34.618C56.8123 37.8135 63.1863 41.2753 63.8792 42.2073C64.7106 43.1393 66.9276 62.3124 68.729 84.814C70.5304 107.449 72.6089 131.681 73.4403 138.871C75.5188 157.911 75.3802 158.444 71.5003 158.444C66.9276 158.444 59.9993 152.585 58.8908 147.792C57.7822 142.866 55.4266 143.931 55.4266 149.257C55.4266 151.92 56.8123 154.583 59.3065 157.112C77.3201 174.421 129.837 154.183 146.326 123.693C149.79 117.302 150.206 115.038 150.345 103.854C150.345 91.6045 150.206 90.9388 145.356 83.882C136.488 70.8337 125.68 63.1112 94.2253 47.5331C83.9713 42.3405 74.4102 37.2809 73.1631 36.2157C71.7775 35.1506 70.6689 31.9551 70.3918 28.0938C70.1147 23.8331 69.2833 21.8359 67.8976 21.5697C66.6505 21.4365 65.2648 21.5697 64.7106 22.1022ZM93.9481 54.9893C116.534 65.7742 124.294 70.4343 131.915 78.1567C138.705 85.0803 142.308 91.4714 143.971 100.392C145.218 106.916 145.079 108.913 142.585 115.171C137.042 129.684 123.047 143.931 106.973 151.653C99.4908 155.248 84.5256 158.976 83.1399 157.512C82.5857 156.979 81.4771 148.591 80.5072 139.138C76.9044 99.8596 74.6874 77.2247 73.4403 64.5758C71.916 49.264 71.7775 45.2697 72.7474 45.2697C73.1631 45.2697 82.7242 49.6635 93.9481 54.9893Z" fill="#F70D1A"/>
<path d="M217.272 97.7292C216.164 100.126 216.164 106.916 217.134 122.095L218.519 143.132L212.561 148.724C203.831 157.112 196.626 156.047 194.686 146.061C193.855 142.2 197.18 111.976 198.982 106.117C199.536 104.387 198.843 103.854 195.795 103.854C186.511 103.854 180.968 106.65 171.13 116.37C159.352 127.953 152.562 139.937 151.453 151.387C150.622 160.574 152.7 163.77 159.49 163.77C164.756 163.77 176.534 153.384 184.294 141.934L189.836 133.812V145.262C189.836 157.645 191.638 161.107 198.012 161.107C202.307 161.107 211.591 156.047 214.085 152.186C217.134 147.792 218.658 148.325 219.767 154.05C221.014 160.574 224.478 169.096 225.863 169.096C229.743 169.096 237.78 154.982 242.353 140.469C245.401 130.883 247.48 126.755 248.45 127.82C248.866 128.22 250.944 132.081 253.3 136.475C257.457 144.597 263.415 151.787 265.909 151.787C268.265 151.787 272.56 144.73 275.609 136.208C278.519 127.953 282.122 102.922 280.736 101.457C280.32 101.058 278.657 101.857 277.133 103.188C275.193 104.786 274.362 107.316 274.362 111.044C274.362 118.766 271.868 134.478 270.066 138.738C266.879 146.194 262.999 142.866 253.577 124.358C246.51 110.511 245.54 110.245 243.184 121.163C240.69 132.88 232.653 153.118 229.466 155.648C227.803 156.979 227.111 156.713 225.586 154.183C224.201 151.92 223.785 143.798 223.785 122.894C223.785 96.6641 223.646 94.5337 221.291 94.5337C220.044 94.5337 218.242 95.9983 217.272 97.7292ZM190.529 116.103C188.035 130.217 169.19 155.781 161.291 155.781C158.243 155.781 157.966 155.248 157.966 150.056C157.966 146.993 159.213 141.934 160.599 138.871C166.834 125.823 182.076 110.511 188.728 110.511C191.222 110.511 191.36 111.177 190.529 116.103Z" fill="#F70D1A"/>
<path d="M291.267 131.149C291.405 160.574 291.544 163.77 293.623 163.77C295.285 163.77 297.364 159.775 301.105 148.724C308.865 126.356 316.07 114.106 319.396 117.435C319.95 117.967 321.752 123.693 323.553 130.217C329.096 151.52 335.054 159.509 342.537 156.18C345.585 154.716 345.585 154.716 342.952 153.784C333.253 150.588 331.313 146.993 327.71 127.154C322.999 100.392 312.883 101.59 301.244 130.483L297.225 140.469L296.81 121.296C296.532 103.454 295.562 98.5281 292.375 98.5281C291.683 98.5281 291.267 113.174 291.267 131.149Z" fill="#F70D1A"/>
<path d="M14.5739 222H2.47692V189.273H14.5579C17.8924 189.273 20.7635 189.928 23.1712 191.238C25.5895 192.538 27.4538 194.413 28.7642 196.863C30.0746 199.303 30.7298 202.222 30.7298 205.62C30.7298 209.029 30.0746 211.959 28.7642 214.409C27.4645 216.86 25.6055 218.74 23.1871 220.05C20.7688 221.35 17.8977 222 14.5739 222ZM10.3871 215.256H14.2702C16.1026 215.256 17.6527 214.947 18.9205 214.33C20.1989 213.701 21.163 212.684 21.8129 211.277C22.4734 209.86 22.8036 207.975 22.8036 205.62C22.8036 203.266 22.4734 201.391 21.8129 199.995C21.1523 198.589 20.1776 197.577 18.8885 196.959C17.6101 196.331 16.0334 196.016 14.1584 196.016H10.3871V215.256ZM35.348 222V189.273H48.8672C51.3175 189.273 53.4322 189.715 55.2113 190.599C57.0011 191.473 58.3807 192.73 59.3501 194.37C60.3196 196 60.8043 197.934 60.8043 200.171C60.8043 202.44 60.3089 204.369 59.3182 205.956C58.3274 207.533 56.9212 208.737 55.0994 209.567C53.2777 210.388 51.1204 210.798 48.6275 210.798H40.0781V204.566H47.1573C48.3505 204.566 49.3466 204.411 50.1456 204.102C50.9553 203.783 51.5678 203.303 51.9833 202.664C52.3988 202.014 52.6065 201.183 52.6065 200.171C52.6065 199.159 52.3988 198.323 51.9833 197.662C51.5678 196.991 50.9553 196.49 50.1456 196.16C49.3359 195.819 48.3398 195.649 47.1573 195.649H43.2582V222H35.348ZM53.7731 207.043L61.9229 222H53.2937L45.3036 207.043H53.7731ZM73.0531 189.273V222H65.1429V189.273H73.0531ZM85.4497 189.273L92.7686 213.243H93.0402L100.359 189.273H109.212L98.1698 222H87.6389L76.5967 189.273H85.4497ZM120.646 189.273V222H112.736V189.273H120.646ZM153.465 189.273V222H146.753L133.73 203.112H133.522V222H125.612V189.273H132.419L145.299 208.129H145.571V189.273H153.465ZM179.916 199.963C179.735 199.292 179.469 198.701 179.117 198.19C178.766 197.668 178.334 197.225 177.823 196.863C177.311 196.501 176.725 196.229 176.065 196.048C175.404 195.857 174.68 195.761 173.892 195.761C172.304 195.761 170.93 196.144 169.769 196.911C168.618 197.678 167.729 198.797 167.1 200.267C166.472 201.727 166.157 203.5 166.157 205.588C166.157 207.687 166.461 209.477 167.068 210.958C167.675 212.439 168.554 213.568 169.705 214.346C170.855 215.123 172.251 215.512 173.892 215.512C175.34 215.512 176.566 215.278 177.567 214.809C178.579 214.33 179.346 213.653 179.868 212.779C180.39 211.906 180.651 210.878 180.651 209.695L182.121 209.871H174.163V204.102H188.274V208.433C188.274 211.363 187.65 213.871 186.404 215.96C185.168 218.048 183.464 219.651 181.29 220.77C179.128 221.888 176.64 222.447 173.828 222.447C170.706 222.447 167.963 221.771 165.598 220.418C163.233 219.065 161.39 217.137 160.069 214.633C158.748 212.119 158.087 209.136 158.087 205.684C158.087 203 158.487 200.619 159.286 198.541C160.085 196.453 161.198 194.685 162.626 193.236C164.064 191.787 165.726 190.69 167.611 189.944C169.508 189.198 171.548 188.825 173.732 188.825C175.628 188.825 177.391 189.097 179.021 189.64C180.662 190.184 182.111 190.951 183.368 191.941C184.636 192.932 185.664 194.109 186.452 195.473C187.24 196.837 187.73 198.333 187.922 199.963H179.916ZM201.533 195.697V189.273H229.195V195.697H219.271V222H211.473V195.697H201.533ZM252.857 189.273H260.752V210.382C260.752 212.822 260.171 214.947 259.01 216.759C257.848 218.559 256.229 219.955 254.152 220.945C252.074 221.925 249.661 222.415 246.913 222.415C244.132 222.415 241.703 221.925 239.626 220.945C237.548 219.955 235.934 218.559 234.784 216.759C233.633 214.947 233.058 212.822 233.058 210.382V189.273H240.968V209.695C240.968 210.825 241.213 211.831 241.703 212.716C242.204 213.6 242.902 214.292 243.797 214.793C244.691 215.294 245.73 215.544 246.913 215.544C248.095 215.544 249.129 215.294 250.013 214.793C250.908 214.292 251.606 213.6 252.106 212.716C252.607 211.831 252.857 210.825 252.857 209.695V189.273ZM273.619 189.273V222H265.709V189.273H273.619ZM277.515 195.697V189.273H305.176V195.697H295.253V222H287.454V195.697H277.515ZM316.95 189.273V222H309.039V189.273H316.95ZM352.805 205.636C352.805 209.237 352.112 212.289 350.728 214.793C349.343 217.297 347.468 219.198 345.103 220.498C342.748 221.798 340.106 222.447 337.176 222.447C334.236 222.447 331.589 221.792 329.234 220.482C326.88 219.172 325.01 217.27 323.625 214.777C322.251 212.273 321.564 209.227 321.564 205.636C321.564 202.036 322.251 198.983 323.625 196.48C325.01 193.976 326.88 192.075 329.234 190.775C331.589 189.475 334.236 188.825 337.176 188.825C340.106 188.825 342.748 189.475 345.103 190.775C347.468 192.075 349.343 193.976 350.728 196.48C352.112 198.983 352.805 202.036 352.805 205.636ZM344.719 205.636C344.719 203.506 344.415 201.705 343.808 200.235C343.212 198.765 342.349 197.652 341.219 196.895C340.101 196.139 338.753 195.761 337.176 195.761C335.61 195.761 334.263 196.139 333.133 196.895C332.004 197.652 331.136 198.765 330.529 200.235C329.932 201.705 329.634 203.506 329.634 205.636C329.634 207.767 329.932 209.567 330.529 211.038C331.136 212.508 332.004 213.621 333.133 214.377C334.263 215.134 335.61 215.512 337.176 215.512C338.753 215.512 340.101 215.134 341.219 214.377C342.349 213.621 343.212 212.508 343.808 211.038C344.415 209.567 344.719 207.767 344.719 205.636ZM385.277 189.273V222H378.565L365.541 203.112H365.333V222H357.423V189.273H364.231L377.111 208.129H377.382V189.273H385.277Z" fill="white"/>
</svg>
